<?xml version="1.0" encoding="UTF-8"?>
<svg xmlns="http://www.w3.org/2000/svg"
     viewBox="0 0 680 420"
     width="680"
     height="420"
     style="max-width:100%;height:auto"
     preserveAspectRatio="xMidYMid meet"
     role="img"
     aria-labelledby="relative-cycle-title relative-cycle-desc"
     data-source-lines="1603-1615">
  <title id="relative-cycle-title">Siklus satu relatif pada pasangan X dan A</title>
  <desc id="relative-cycle-desc">Ruang X dibatasi oleh kurva hitam. Subruang A adalah daerah biru di sebelah kanan. Rantai satu merah melengkung melalui X dan kedua titik ujungnya terletak pada A, sehingga batasnya lenyap modulo rantai dalam A.</desc>
  <rect x="0" y="0" width="680" height="420" fill="#ffffff"/>
  <path d="M80 304 C28 218 72 86 206 58 C356 24 596 74 628 182 C658 286 540 364 366 374 C220 382 112 356 80 304 Z"
        fill="#f9fafb" stroke="#111827" stroke-width="5" stroke-linejoin="round"/>
  <path d="M358 126 C432 94 574 114 594 174 L594 288 C520 312 430 310 358 286 Z"
        fill="#dbeafe" stroke="#1d4ed8" stroke-width="5"/>
  <path d="M358 252 C300 252 210 282 170 236 C144 206 192 162 264 172 C306 178 328 154 358 158"
        fill="none" stroke="#b91c1c" stroke-width="7"
        stroke-linecap="round" stroke-linejoin="round"/>
  <circle cx="358" cy="252" r="8" fill="#b91c1c" stroke="#111827" stroke-width="2"/>
  <circle cx="358" cy="158" r="8" fill="#b91c1c" stroke="#111827" stroke-width="2"/>
  <text x="104" y="124" font-family="sans-serif" font-size="28" font-weight="700" fill="#111827">X</text>
  <text x="514" y="210" font-family="sans-serif" font-size="28" font-weight="700" fill="#1d4ed8">A</text>
</svg>
