<?xml version="1.0" encoding="UTF-8"?>
<svg xmlns="http://www.w3.org/2000/svg" viewBox="0 0 1020 470" width="1020" height="470"
     style="max-width:100%;height:auto" preserveAspectRatio="xMidYMid meet"
     role="img" aria-labelledby="torus-title torus-desc" data-source-lines="3399-3441">
  <title id="torus-title">Struktur CW minimal pada torus</title>
  <desc id="torus-desc">Sebuah persegi mempunyai sisi mendatar berlabel b dengan arah sama dan sisi tegak berlabel a dengan arah sama. Keempat sudut menjadi satu sel nol, sisi-sisinya menjadi dua sel satu a dan b, dan interior persegi menjadi satu sel dua yang dilekatkan menurut kata aba invers b invers.</desc>
  <defs>
    <marker id="torus-red" viewBox="0 0 10 10" refX="9" refY="5" markerWidth="8" markerHeight="8" orient="auto">
      <path d="M0,0 L10,5 L0,10 Z" fill="#dc2626"/>
    </marker>
    <marker id="torus-blue" viewBox="0 0 10 10" refX="9" refY="5" markerWidth="8" markerHeight="8" orient="auto">
      <path d="M0,0 L10,5 L0,10 Z" fill="#1d4ed8"/>
    </marker>
    <pattern id="torus-fill" width="12" height="12" patternUnits="userSpaceOnUse" patternTransform="rotate(45)">
      <rect width="12" height="12" fill="#f5f3ff"/>
      <line x1="0" y1="0" x2="0" y2="12" stroke="#c4b5fd" stroke-width="3"/>
    </pattern>
  </defs>
  <rect width="1020" height="470" rx="18" fill="#ffffff"/>
  <rect x="90" y="85" width="310" height="310" fill="url(#torus-fill)" stroke="#374151" stroke-width="5"/>
  <line x1="105" y1="85" x2="385" y2="85" stroke="#dc2626" stroke-width="8" marker-end="url(#torus-red)"/>
  <line x1="105" y1="395" x2="385" y2="395" stroke="#dc2626" stroke-width="8" marker-end="url(#torus-red)"/>
  <line x1="90" y1="380" x2="90" y2="100" stroke="#1d4ed8" stroke-width="8" marker-end="url(#torus-blue)"/>
  <line x1="400" y1="380" x2="400" y2="100" stroke="#1d4ed8" stroke-width="8" marker-end="url(#torus-blue)"/>
  <g fill="#111827"><circle cx="90" cy="85" r="11"/><circle cx="400" cy="85" r="11"/><circle cx="90" cy="395" r="11"/><circle cx="400" cy="395" r="11"/></g>
  <text x="245" y="64" text-anchor="middle" font-family="sans-serif" font-size="26" font-weight="700" fill="#991b1b">b</text>
  <text x="245" y="435" text-anchor="middle" font-family="sans-serif" font-size="26" font-weight="700" fill="#991b1b">b</text>
  <text x="58" y="246" text-anchor="middle" font-family="sans-serif" font-size="26" font-weight="700" fill="#1e40af">a</text>
  <text x="432" y="246" text-anchor="middle" font-family="sans-serif" font-size="26" font-weight="700" fill="#1e40af">a</text>
  <text x="245" y="250" text-anchor="middle" font-family="sans-serif" font-size="30" font-weight="700" fill="#5b21b6">e²</text>
  <text x="510" y="248" text-anchor="middle" font-family="sans-serif" font-size="48" font-weight="700" fill="#374151">⇒</text>
  <g transform="translate(710,245)" fill="none" stroke-linecap="round">
    <circle cx="0" cy="0" r="13" fill="#111827" stroke="none"/>
    <path d="M0 0 C-105 -112 -184 -8 -104 65 C-51 111 0 54 0 0" stroke="#1d4ed8" stroke-width="10"/>
    <path d="M0 0 C105 -112 184 -8 104 65 C51 111 0 54 0 0" stroke="#dc2626" stroke-width="10"/>
  </g>
  <text x="602" y="404" text-anchor="middle" font-family="sans-serif" font-size="24" fill="#1e40af">a</text>
  <text x="818" y="404" text-anchor="middle" font-family="sans-serif" font-size="24" fill="#991b1b">b</text>
  <text x="710" y="56" text-anchor="middle" font-family="sans-serif" font-size="25" font-weight="700" fill="#111827">satu verteks dan dua gelung</text>
  <text x="710" y="445" text-anchor="middle" font-family="sans-serif" font-size="21" fill="#374151">∂e² mengikuti aba⁻¹b⁻¹</text>
</svg>
